<svg xmlns="http://www.w3.org/2000/svg" viewBox="0 0 800 500" role="img" aria-label="Integrated Wetland Management Program">
  <defs>
    <linearGradient id="g" x1="0" y1="0" x2="0" y2="1">
      <stop offset="0" stop-color="#08412e"/><stop offset="1" stop-color="#0a9396"/>
    </linearGradient>
  </defs>
  <rect width="800" height="500" fill="url(#g)"/>
  <circle cx="650" cy="120" r="64" fill="#ffd166" opacity="0.85"/>
  <g fill="#2d6a4f" opacity="0.9">
    <path d="M120 360 C120 300 150 250 160 250 C170 250 200 300 200 360 Z"/>
    <path d="M180 370 C180 320 205 280 214 280 C223 280 248 320 248 370 Z"/>
    <path d="M560 365 C560 310 588 268 598 268 C608 268 636 310 636 365 Z"/>
  </g>
  <path d="M0 380 Q200 350 400 380 T800 380 V500 H0 Z" fill="#023e63" opacity="0.9"/>
  <text x="48" y="110" font-family="'Space Grotesk',sans-serif" font-size="24" fill="#ffd166" letter-spacing="3">CONSERVATION</text>
  <text x="48" y="160" font-family="'Poppins',sans-serif" font-size="38" font-weight="700" fill="#eaf2ff">Integrated Wetland</text>
  <text x="48" y="205" font-family="'Poppins',sans-serif" font-size="38" font-weight="700" fill="#eaf2ff">Management</text>
</svg>
